<svg xmlns="http://www.w3.org/2000/svg" width="55" height="49" viewBox="0 0 55 49">
    <g fill="none" fill-rule="evenodd">
        <g stroke="#2E2E41" stroke-width="2">
            <path d="M21.768 6.433l5.019-5.019 5.018 5.02M26.787 24.671V1.414M3.062 37.933l-1.837 6.855 6.856 1.837M16.293 36.209L1.39 45.075M51.464 38.716l1.837 6.855-6.856 1.837M37.473 36.209l15.814 9.387"/>
        </g>
        <path stroke="#2E2E41" stroke-linejoin="round" stroke-width="2" d="M38.334 36.645l-11.548 4.123V25.754l11.548-4.123z"/>
        <path stroke="#2E2E41" stroke-linejoin="round" stroke-width="2" d="M26.787 40.768l-11.548-4.123V21.631l11.548 4.123z"/>
        <path fill="#FFF" d="M26.86 17.507l-11.622 4.124 11.549 4.123 11.548-4.123z"/>
        <path stroke="#2E2E41" stroke-linejoin="bevel" stroke-width="2" d="M26.86 17.507l-11.622 4.124 11.549 4.123 11.548-4.123z"/>
    </g>
</svg>
