<svg xmlns="http://www.w3.org/2000/svg" width="50" height="42" viewBox="0 0 50 42">
    <g fill="none" fill-rule="evenodd">
        <path fill="#FEFEFE" d="M5.351 25.662H44.41V4.687H5.351z"/>
        <g fill="#2D2D41">
            <path d="M2.995 1.989H46.813c.159 0 .288.128.288.287v26.113H2.71V2.276c0-.159.128-.287.286-.287zm26.2 37.255c.046.23.092.419.141.59h-8.879c.053-.171.1-.36.147-.589.147-.743.133-1.81.119-2.84-.002-.204-.006-.4-.006-.588h8.364l-.005.62c-.014 1.015-.028 2.064.119 2.807zM46.9 33.853H3.246c-.18 0-.534-.366-.534-.601v-2.898h44.403v2.962c0 .305-.152.537-.214.537zm2.165-5.49V2.276c0-1.242-1.01-2.25-2.253-2.25H2.995a2.253 2.253 0 0 0-2.252 2.25v28.078h.003v2.898c0 1.319 1.215 2.565 2.5 2.565H18.75c.001.2.004.403.007.615.005.39.01.822.004 1.23-.006.472-.029.91-.087 1.2-.06.302-.1.433-.12.49-.047.028-.1.054-.16.088l-.067.036a15.199 15.199 0 0 1-.745.358H16.34v1.964h15.426l.006.004.001-.004h1.719v-1.964h-1.31a15.118 15.118 0 0 1-.781-.377c-.061-.034-.113-.06-.157-.087a4.105 4.105 0 0 1-.12-.507c-.057-.282-.08-.694-.088-1.142-.006-.415 0-.86.005-1.258.002-.223.005-.438.005-.646h15.855c1.364 0 2.18-1.272 2.18-2.5v-4.954h-.015z"/>
            <path d="M17.861 9.126l-6.068 6.063 6.068 6.063 1.39-1.389-4.678-4.674 4.678-4.674zM30.51 10.515l4.678 4.674-4.678 4.674 1.39 1.389 6.067-6.063-6.068-6.063zM21.828 20.536l1.834.707 4.271-11.069-1.834-.707z"/>
        </g>
    </g>
</svg>
