<svg xmlns="http://www.w3.org/2000/svg" width="56" height="48" viewBox="0 0 56 48">
    <g fill="none" fill-rule="evenodd">
        <path fill="#2E2D42" d="M34.404 4.77l2.24 4.139h-4.48l2.24-4.138zm-4.21 14.056v23.146H27.28V16.851h2.913v1.975zm1.965-7.942h1.261l.001 31.4h-1.263l.001-31.4zm15.043 6.37v24.718h-8.587V16.851h8.184c.222 0 .403.18.403.403zm-11.816 25.03h1.264v-31.4h-1.264v31.4zM25.315 2.9V4.38h-2.916v1.975h2.916v1.482h-1.116v1.974h1.116v1.481h-2.916v1.974h2.916v1.481h-1.116v1.976h1.116v1.48h-2.916v1.974h2.916v1.481h-1.116v1.975h1.116v1.48h-2.916v1.976h2.916v1.481h-1.116v1.975h1.116v1.48h-2.916v1.975h2.916v1.481h-1.116v1.976h1.116v1.48h-2.916v1.975h2.916v1.237h-6.144V2.9h6.144zM9.024 16.85h8.182v25.122H8.621V17.254c0-.222.18-.403.403-.403zm44.219 28.088c-.617.397-1.566.897-2.173.897H4.753c-.594 0-1.522-.476-2.173-.896v-.992h50.663v.991zm-4.076-27.684a2.375 2.375 0 0 0-2.368-2.377h-8.184v-5.07h.002V8.418L34.403.639l-4.21 7.78V14.876H27.28V.927H17.206v13.95H9.024a2.375 2.375 0 0 0-2.368 2.378v24.718H.616v3.981l.394.296c.213.16 2.128 1.56 3.743 1.56H51.07c1.616 0 3.532-1.4 3.744-1.56l.394-.295v-3.982h-6.04V17.254z"/>
        <path fill="#FEFEFE" d="M27.28 40.085h2.913v-21.26H27.28zM38.614 40.086h6.623v-21.26h-6.623zM10.586 40.086h6.62v-21.26h-6.62z"/>
    </g>
</svg>
