<svg xmlns="http://www.w3.org/2000/svg" width="30" height="36" viewBox="0 0 30 36">
    <g fill="none" fill-rule="evenodd">
        <path fill="#FFF" d="M8.67 14.048c0-3.247 2.822-5.719 6.302-5.719 3.481 0 6.303 2.472 6.303 5.72"/>
        <path stroke="#2E2E41" stroke-width="1.44" d="M8.67 14.048c0-3.247 2.822-5.719 6.302-5.719 3.481 0 6.303 2.472 6.303 5.72"/>
        <path stroke="#2E2E41" stroke-width="1.44" d="M14.41 8.33V1h3.457M0 35.161h29.971M0 17.509h29.971M1.729 19.863v12.944M4.035 19.863v12.944M7.493 19.863v12.944M9.798 19.863v12.944M13.256 19.863v12.944M16.715 19.863v12.944M20.173 19.863v12.944M22.479 19.863v12.944M25.937 19.863v12.944M28.242 19.863v12.944"/>
    </g>
</svg>
