<svg xmlns="http://www.w3.org/2000/svg" width="38" height="23" viewBox="0 0 38 23">
    <g fill="none" fill-rule="evenodd">
        <path fill="#FEFEFE" d="M25.674 16.53h-2.227a3.164 3.164 0 0 1-3.153-3.168v-2.217l-1.296 1.3-.926-.931 2.94-2.953 2.942 2.953-.926.931-1.424-1.43v2.347a1.85 1.85 0 0 0 1.843 1.853h2.227v1.316zm1.193-9.465V4.679a1.23 1.23 0 0 1 1.136-1.225H7.169v14.173h19.698v-6.859l-.016-1.25-.024-1.315.04-1.138z"/>
        <path fill="#2E2D42" d="M21.604 13.362v-2.348l1.424 1.431.927-.932-2.941-2.952-2.942 2.952.926.932 1.295-1.3v2.217a3.165 3.165 0 0 0 3.154 3.169h2.228v-1.317h-2.228a1.85 1.85 0 0 1-1.843-1.852"/>
        <path fill="#2E2D42" d="M34.695 21.461H28.177v-1.26h7.875v1.26h-1.357zM28.178 5.745h7.874v-.984h-7.874v.984zm7.874 13.12h-7.875v-8.097h-1.31v8.117H5.86V2.407c0-.149.12-.27.267-.27h25.185c.148 0 .268.121.268.27v1.038h-3.483c-.032 0-.062.006-.093.009a1.23 1.23 0 0 0-1.136 1.226v2.385h1.31v-.003h7.875V18.865zM3.28 21.461c-.396 0-1.015-.316-1.45-.597v-.662h25.037v1.259H3.28zM36.133 3.445H32.89V2.407c0-.874-.709-1.586-1.58-1.586H6.127c-.87 0-1.578.712-1.578 1.586v16.478H.52v2.654l.263.198c.142.107 1.418 1.04 2.496 1.04h32.853c.678 0 1.23-.554 1.23-1.235V4.68c0-.681-.552-1.235-1.23-1.235z"/>
        <path fill="#2E2D42" d="M26.85 9.519c.01 0 .577-.01 1.327-.018.47-.005 1.01-.01 1.533-.01a1.85 1.85 0 0 1 1.844 1.852v2.348l-1.425-1.43-.926.93 2.941 2.953 2.942-2.952-.927-.932-1.295 1.301v-2.218a3.165 3.165 0 0 0-3.154-3.168c-.522 0-1.062.005-1.533.01-.763.007-1.341.018-1.35.018l.024 1.316z"/>
    </g>
</svg>
