<svg xmlns="http://www.w3.org/2000/svg" xmlns:xlink="http://www.w3.org/1999/xlink" width="32" height="31" viewBox="0 0 32 31">
    <defs>
        <path id="a" d="M.72.36h.361v.36h-.36z"/>
    </defs>
    <g fill="none" fill-rule="evenodd">
        <path stroke="#2E2E41" stroke-width="1.44" d="M19.55 26.754L3.52 17.644a.849.849 0 0 1-.318-1.17l3.82-6.514a.877.877 0 0 1 1.188-.313l5.324 3.026M20 23.636L10.482 7.407a.85.85 0 0 1 .319-1.169l6.616-3.761a.878.878 0 0 1 1.188.314l2.948 4.937"/>
        <path fill="#FFF" d="M29.902 30.006h-7.665a.684.684 0 0 1-.684-.684V1.684c0-.378.307-.684.684-.684h7.665c.378 0 .685.306.685.684v27.638a.684.684 0 0 1-.685.684"/>
        <path stroke="#2E2E41" stroke-width="1.44" d="M29.902 30.006h-7.665a.684.684 0 0 1-.684-.684V1.684c0-.378.307-.684.684-.684h7.665c.378 0 .685.306.685.684v27.638a.684.684 0 0 1-.685.684zM19.245 30.006H2.305a.86.86 0 0 1-.863-.855v-7.117c0-.473.386-.855.862-.855h7.362"/>
        <g transform="translate(0 30.006)">
            <mask id="b" fill="#fff">
                <use xlink:href="#a"/>
            </mask>
        </g>
        <path stroke="#2E2E41" stroke-width="1.44" d="M26.172 26.016"/>
        <path fill="#FFF" d="M23.65 22.104h5.045"/>
        <path stroke="#2E2E41" stroke-width="1.44" d="M23.65 22.104h5.045"/>
    </g>
</svg>
