<svg xmlns="http://www.w3.org/2000/svg" width="35" height="49" viewBox="0 0 35 49">
    <g fill="none" fill-rule="evenodd">
        <path stroke="#2E2E41" stroke-width="2" d="M5.27 29.676h3.37l2.487-12.266L14.78 34.9l2.183-10.163 1.956 4.94h6.302"/>
        <path fill="#FFF" d="M20.563 16.057c-2.008-2.641-5.836.478-3.883 2.838.192.227 3.541 4.323 3.84 4.324.297 0 3.663-4.012 3.858-4.237 2.09-2.496-1.822-5.544-3.815-2.925"/>
        <path stroke="#2E2E41" stroke-width="2" d="M20.563 16.057c-2.008-2.641-5.836.478-3.883 2.838.192.227 3.541 4.323 3.84 4.324.297 0 3.663-4.012 3.858-4.237 2.09-2.496-1.822-5.544-3.815-2.925z"/>
        <path fill="#FFF" d="M5.02 8.974C6.853 8.44 7.69 4.361 7.844 2.428 7.905 1.668 8.525 1 9.297 1h12.33c.772 0 1.392.668 1.452 1.428.154 1.933.991 6.012 2.826 6.546"/>
        <path stroke="#2E2E41" stroke-width="2" d="M5.02 8.974C6.853 8.44 7.69 4.361 7.844 2.428 7.905 1.668 8.525 1 9.297 1h12.33c.772 0 1.392.668 1.452 1.428.154 1.933.991 6.012 2.826 6.546"/>
        <path fill="#FFF" d="M25.906 39.471c-1.835.534-2.672 4.613-2.826 6.546-.06.76-.68 1.428-1.452 1.428H9.298c-.772 0-1.392-.668-1.453-1.428-.153-1.933-.99-6.012-2.825-6.546"/>
        <path stroke="#2E2E41" stroke-width="2" d="M25.906 39.471c-1.835.534-2.672 4.613-2.826 6.546-.06.76-.68 1.428-1.452 1.428H9.298c-.772 0-1.392-.668-1.453-1.428-.153-1.933-.99-6.012-2.825-6.546M25.104 39.471H5.82A4.82 4.82 0 0 1 1 34.651V13.76a4.82 4.82 0 0 1 4.82-4.82h19.284a4.82 4.82 0 0 1 4.82 4.82v20.891a4.82 4.82 0 0 1-4.82 4.82zM33.139 15.367v6.351"/>
    </g>
</svg>
