<svg xmlns="http://www.w3.org/2000/svg" width="32" height="31" viewBox="0 0 32 31">
    <g fill="none" fill-rule="evenodd">
        <path stroke="#2E2E41" stroke-width="1.44" d="M26.712 29.408V18.78M28.445 3.2c0 .975-.775 2.338-1.733 2.338-.957 0-1.733-1.363-1.733-2.338 0-.976.776-1.767 1.733-1.767.958 0 1.733.791 1.733 1.767z"/>
        <path fill="#FFF" d="M28.954 29.408l.686-12.567c.01-.254.81.077.818-.164.327-8.888-.398-9.453-.48-9.523-.096-.027-.888-.05-1.125-.065-.32-.02-.596.179-.743.47-.52 1.03-2.275 1.03-2.796 0-.147-.291-.423-.49-.743-.47-.2.013-5.694.917-7.424 1.208-.714.121-.672 1.182.047 1.249l6.59.616v6.679l.686 12.567"/>
        <path stroke="#2E2E41" stroke-width="1.44" d="M28.954 29.408l.686-12.567c.01-.254.81.077.818-.164.327-8.888-.398-9.453-.48-9.523-.096-.027-.888-.05-1.125-.065-.32-.02-.596.179-.743.47-.52 1.03-2.275 1.03-2.796 0-.147-.291-.423-.49-.743-.47-.2.013-5.694.917-7.424 1.208-.714.121-.672 1.182.047 1.249l6.59.616v6.679l.686 12.567"/>
        <path stroke="#2E2E41" stroke-width="1.44" d="M20.434 23.449H1V1.939h20.463"/>
        <path stroke="#2E2E41" stroke-width="1.44" d="M5.513 13.397a1.254 1.254 0 1 1 .001-2.507 1.254 1.254 0 0 1-.001 2.507zM11.937 8.966a1.253 1.253 0 1 1-.001-2.505 1.253 1.253 0 0 1 0 2.505zM17.243 18.98a1.254 1.254 0 1 1 .002-2.507 1.254 1.254 0 0 1-.002 2.507zM10.684 8.416l-4.117 3.057M12.616 8.764l3.948 7.913M16.357 25.666v3.956M12.238 29.622h7.107M12.238 0v1.939M20.438 0v1.939"/>
    </g>
</svg>
