<svg xmlns="http://www.w3.org/2000/svg" width="180" height="25" viewBox="0 0 180 25">
    <g fill="none" fill-rule="evenodd">
        <g fill="#818A8F">
            <path fill-rule="nonzero" d="M142.996 17.704c0 .108-.074.159-.203.159h-1.374c-.094 0-.166-.034-.185-.123l-.677-2.318c-.018-.087-.073-.106-.182-.106h-2.971c-.109 0-.166.02-.183.106l-.678 2.318c-.02.09-.092.123-.185.123h-1.372c-.13 0-.205-.05-.205-.159 0-.017.02-.035.02-.069l3.41-10.71c.017-.089.073-.123.184-.123h.99c.092 0 .146.034.182.122l3.41 10.711c0 .034.019.053.019.07zm-3.85-7.32a20.507 20.507 0 0 1-.22-.773h-.074l-.221.79-.897 3.284c0 .034-.018.053-.018.071 0 .104.07.157.203.157h1.923c.129 0 .2-.053.2-.157 0-.018-.016-.054-.016-.07l-.88-3.302z"/>
            <path d="M151.593 8.398c0 .055-.037.106-.109.142l-1.174.56c-.037.018-.076.018-.092.018-.074 0-.092-.035-.147-.106-.423-.544-.733-.984-1.522-.984h-.88c-.916 0-1.65.704-1.65 1.582v5.442c0 .879.734 1.582 1.65 1.582h.55c.916 0 1.65-.703 1.65-1.582v-1.14c0-.104-.073-.175-.184-.175h-1.831c-.129 0-.185-.053-.185-.175v-1.055c0-.123.057-.175.185-.175h3.482c.129 0 .183.052.183.175v2.545c0 1.793-1.3 2.987-3.3 2.987h-.55c-1.997 0-3.3-1.194-3.3-2.987V9.61c0-1.791 1.303-2.984 3.3-2.984h.88c1.798.002 3.044 1.089 3.044 1.772z"/>
            <path fill-rule="nonzero" d="M157.752 17.863h-3.667c-.13 0-.182-.05-.182-.175V6.977c0-.124.053-.174.182-.174h3.667c2.016 0 3.3 1.226 3.3 3.16v4.741c0 1.948-1.266 3.159-3.3 3.159zm1.649-8.075c0-.879-.733-1.582-1.649-1.582h-2.018c-.128 0-.182.053-.182.175v7.903c0 .123.054.175.182.175h2.018c.916 0 1.649-.72 1.649-1.581v-5.09z"/>
            <path d="M169.922 17.863h-6.232c-.129 0-.184-.05-.184-.175V6.977c0-.124.056-.174.184-.174h6.232c.11 0 .184.05.184.174v1.052c0 .124-.056.177-.184.177h-4.583c-.129 0-.184.053-.184.175v2.985c0 .125.056.177.184.177h3.758c.13 0 .183.054.183.175v1.054c0 .125-.055.175-.183.175h-3.758c-.129 0-.184.052-.184.176v3.16c0 .124.056.176.184.176h4.583c.11 0 .184.052.184.176v1.053c0 .124-.056.175-.184.175z"/>
            <path fill-rule="nonzero" d="M179.564 17.723c0 .09-.072.14-.183.14h-1.413l-.164-.123-1.704-4.688-.147-.106h-1.813c-.13 0-.184.052-.184.176v4.565c0 .125-.057.175-.185.175h-1.283c-.13 0-.183-.05-.183-.175V6.977c0-.124.053-.174.183-.174h3.666c2.016 0 3.298 1.226 3.298 3.16v.175c0 .615-.347 1.37-1.044 2.003-.33.298-.66.35-.66.525 0 .02 0 .037.018.054l1.78 4.915a.153.153 0 0 1 .017.088zm-1.76-7.935c0-.879-.734-1.582-1.649-1.582h-2.014c-.13 0-.184.053-.184.175v2.985c0 .125.054.177.184.177h2.014c.915 0 1.649-.702 1.649-1.58v-.175z"/>
            <g>
                <path d="M36.153 18.04h-.549c-1.999 0-3.3-1.194-3.3-2.987V6.978c0-.125.055-.175.183-.175h1.283c.11 0 .184.051.184.175v8.075c0 .879.732 1.582 1.65 1.582h.55c.915 0 1.65-.703 1.65-1.582V6.978c0-.125.055-.175.182-.175h1.284c.11 0 .184.051.184.175v8.075c-.002 1.793-1.303 2.987-3.301 2.987zM49.26 17.863h-1.173l-.166-.088-4.363-7.883.11 7.795c0 .125-.055.175-.183.175h-1.282c-.128 0-.184-.05-.184-.175V6.977c0-.124.056-.174.184-.174h1.172l.165.087 4.345 7.867-.091-7.779c0-.124.055-.175.183-.175h1.284c.127 0 .182.052.182.175v10.71c0 .124-.056.175-.183.175zM53.55 17.863h-1.284c-.128 0-.185-.05-.185-.175V6.978c0-.125.057-.175.185-.175h1.284c.11 0 .183.051.183.175v10.71c0 .124-.054.175-.183.175zM60.37 17.74c-.039.09-.093.123-.184.123h-.991c-.09 0-.146-.034-.182-.123l-3.41-10.71c0-.035-.019-.053-.019-.07 0-.107.074-.158.2-.158h1.376c.11 0 .165.035.184.123l2.383 8.043 2.31-8.043c.018-.088.072-.123.183-.123h1.375c.128 0 .202.051.202.157 0 .019-.02.054-.02.071L60.37 17.74zM72.064 17.863H65.83c-.128 0-.183-.05-.183-.175V6.978c0-.125.055-.175.183-.175h6.233c.11 0 .183.051.183.175V8.03c0 .125-.056.177-.183.177H67.48c-.13 0-.183.053-.183.177v2.984c0 .123.054.175.183.175h3.758c.128 0 .183.054.183.177v1.052c0 .125-.056.175-.183.175H67.48c-.13 0-.183.052-.183.176v3.16c0 .124.054.176.183.176h4.583c.11 0 .183.052.183.176v1.053c0 .124-.055.175-.183.175z"/>
                <path fill-rule="nonzero" d="M81.706 17.723c0 .09-.073.14-.184.14H80.11l-.165-.123-1.704-4.687-.148-.107h-1.814c-.128 0-.183.052-.183.176v4.565c0 .125-.055.175-.185.175H74.63c-.129 0-.185-.05-.185-.175V6.977c0-.124.056-.174.185-.174h3.666c2.017 0 3.3 1.227 3.3 3.16v.176c0 .614-.35 1.369-1.044 2.002-.331.3-.66.351-.66.526 0 .018 0 .036.018.053l1.779 4.915a.153.153 0 0 1 .018.088zm-1.76-7.935c0-.88-.733-1.582-1.65-1.582H76.28c-.128 0-.183.053-.183.177v2.984c0 .124.056.175.183.175h2.016c.916 0 1.65-.701 1.65-1.58v-.174z"/>
                <path d="M85.135 9.611c0 .948.898 1.283 2.382 1.95 1.942.86 2.858 1.77 2.858 3.492 0 1.775-1.3 2.987-3.3 2.987h-.769c-.88 0-1.595-.21-1.997-.51-.716-.526-1.046-1.02-1.046-1.302 0-.053.037-.087.11-.122l1.155-.56a.307.307 0 0 1 .09-.036c.075 0 .112.055.167.124.422.542.678 1.001 1.521 1.001h.77c.898 0 1.65-.703 1.65-1.582 0-1.002-.789-1.438-2.218-2.071-1.962-.877-3.027-1.579-3.027-3.37 0-1.791 1.303-2.984 3.3-2.984h.294c1.796 0 3.043 1.106 3.043 1.773 0 .052-.038.105-.11.141l-1.173.561c-.037.018-.073.018-.092.018-.073 0-.093-.036-.147-.106-.422-.544-.734-.985-1.522-.985h-.293c-.897 0-1.646.686-1.646 1.581zM93.953 17.863H92.67c-.128 0-.182-.05-.182-.175V6.978c0-.125.054-.175.182-.175h1.283c.112 0 .182.051.182.175v10.71c0 .124-.053.175-.182.175zM102.184 8.207h-2.106c-.13 0-.184.053-.184.177v9.304c0 .125-.055.175-.183.175h-1.283c-.13 0-.185-.05-.185-.175V8.384c0-.125-.055-.177-.183-.177h-2.11c-.128 0-.182-.053-.182-.177V6.978c0-.125.055-.175.183-.175h6.233c.13 0 .187.051.187.175V8.03c0 .124-.056.177-.187.177zM107.84 12.79v4.898c0 .125-.052.175-.182.175h-1.282c-.128 0-.182-.05-.182-.175V12.79l-3.19-5.725c-.019-.053-.036-.088-.036-.124 0-.088.07-.14.2-.14h1.502l.167.105 2.015 4.004c.038.09.11.124.167.124.055 0 .129-.034.166-.124l2.016-4.004.165-.104h1.505c.129 0 .2.051.2.14 0 .035-.02.07-.038.123l-3.192 5.725z"/>
            </g>
            <path fill-rule="nonzero" d="M119.56 18.04h-.55c-1.998 0-3.3-1.194-3.3-2.984V9.612c0-1.791 1.302-2.984 3.3-2.984h.55c1.998 0 3.298 1.193 3.298 2.984v5.444c0 1.79-1.301 2.984-3.297 2.984zm1.651-8.429c0-.878-.736-1.582-1.65-1.582h-.55c-.918 0-1.651.704-1.651 1.582v5.444c0 .876.733 1.58 1.65 1.58h.55c.915 0 1.651-.704 1.651-1.58V9.611z"/>
            <path d="M131.517 8.206h-4.583c-.129 0-.184.053-.184.175v2.987c0 .123.056.175.184.175h3.759c.126 0 .18.054.18.175v1.054c0 .123-.054.175-.18.175h-3.759c-.129 0-.184.052-.184.176v4.567c0 .123-.053.173-.183.173h-1.283c-.13 0-.185-.05-.185-.173V6.978c0-.125.057-.175.185-.175h6.233c.109 0 .183.051.183.175V8.03c0 .124-.056.176-.183.176z"/>
        </g>
        <path fill="#FFF" d="M0 18.262a6.243 6.243 0 0 0 2.15 4.536c1.293 1.125 2.426 1.659 4.437 1.659H23.87c.66-.01.994-.335.994-.965V.966c0-.64-.34-.966-1.01-.966H1.007C.343 0 .003.323 0 .961v17.301z"/>
        <path fill="#A71930" d="M21.821 10.008v13.586c0 .018.016.034.035.034h1.796c.164-.002.296-.126.296-.281V7.855c0-.018-.013-.03-.03-.033-1.135-.04-4.257-.151-5.022-.183-.94-.04-1.808-.117-2.11-.14-.3-.02-.79-.044-.79-.58 0-.54.537-.554.79-.572.255-.018 1.31-.099 2.112-.15.65-.04 3.854-.144 5.015-.183a.035.035 0 0 0 .035-.034V4.822a.033.033 0 0 0-.034-.033c-.564.06-1.161.089-1.97.089-3.883 0-7.59-.932-8.9-.932-1.396 0-2.048.584-2.519 1.037-.375.36-.606 1.037-.606 1.733 0 .413.232.976.587 1.353.32.341.865.616 1.365.662.829.069 1.615-.317 1.77-.952.192-.795-.226-1.095-.433-1.145-.108-.024-.396-.031-.48.157.123.544-.367.797-.721.767-.384-.028-.687-.274-.769-.737-.12-.668.338-1.343 1.479-1.304.462.017.922.182 1.348.566.415.39.653.99.645 1.468-.015.714-.243 1.346-.741 1.817-.558.533-1.251.761-2.157.761-.843 0-1.67-.348-2.33-.982-.702-.671-1.116-1.574-1.116-2.42 0-1.182.49-3.931 4.704-3.931 1.201 0 4.953.41 8.875.41.862 0 1.446-.015 1.968-.041.019-.001.035-.015.035-.033V1.123a.29.29 0 0 0-.296-.282H1.209a.287.287 0 0 0-.295.282v9.699c0 .018.017.033.035.033l.013-.002c1.411-.552 2.748-.375 3.322-.17.216.076.279.183.27.273-.009.081-.052.153-.254.162-.515.024-1.085.035-1.8.248-.353.106-1.016.408-1.574.856a.035.035 0 0 0-.012.021v1.262c.002.017.017.03.035.03a.03.03 0 0 0 .024-.01 5.822 5.822 0 0 1 2.044-1.222c1.394-.493 2.85-.494 4.123-.049.265.094.927.373.756.692-.106.197-.472.095-.707.052-.661-.114-1.444-.084-2.17.088-1.114.263-2.056.813-2.745 1.593-.302.343-.98 1.062-1.26 2.454-.07.362-.102.77-.097 1.183.014.4.087.788.208 1.162.122.36.225.472.285.456.024-.006.038-.031.045-.068-.05-.603-.004-1.225.19-1.8.334-1.01.87-1.952 1.866-2.75 1.044-.835 2.357-1.21 3.59-1.21 1.002 0 1.999.308 2.86 1.064.698.613 1 1.614.86 2.514-.142.91-.738 1.451-1.175 1.202-.102-.057-.143-.097-.132-.23.007-.102.24-.585.193-1.048-.048-.488-.419-.963-.668-1.157-.412-.323-1.02-.53-1.633-.53-1.336 0-2.777 1.182-2.777 3.35 0 2.115 2.118 4.257 5.118 4.358h6.796a.035.035 0 0 0 .035-.033V9.756a.639.639 0 0 1 .648-.612c.355 0 .642.272.649.611v13.839c0 .018.015.034.035.034h1.717a.035.035 0 0 0 .035-.034V9.875c.013-.566.494-1.022 1.087-1.022.598 0 1.073.468 1.073 1.042v.113z"/>
    </g>
</svg>
