<svg xmlns="http://www.w3.org/2000/svg" width="130" height="25" viewBox="0 0 130 25">
    <g fill="none" fill-rule="evenodd">
        <g fill="#231F20">
            <path d="M10.305 22.258c-1.11 1.13-2.616 1.694-4.28 1.694-1.745 0-3.25-.565-4.36-1.694C.635 21.21.079 19.678.079 17.903V0h3.647v18.065c0 1.693 1.03 2.5 2.298 2.5 1.269 0 2.22-.807 2.22-2.5V0h3.646v17.823c0 1.854-.634 3.387-1.585 4.435z"/>
            <path fill-rule="nonzero" d="M17.439 3.952V.08h3.805v3.87h-3.805zm.159 19.758V6.694h3.487V23.79h-3.487v-.08z"/>
            <path d="M33.293 3.387V23.71h-3.647V3.387h-3.884V0h11.494v3.387z"/>
        </g>
        <path fill="#CB333B" d="M47.165.08l-8.64 23.872h1.664L48.829.08z"/>
        <path fill="#231F20" d="M56.201 9.516l-2.14-6.37v6.37h-1.03V.081h.95l2.141 6.37V.082h1.03v9.354h-.95z"/>
        <path fill="#231F20" fill-rule="nonzero" d="M61.988 8.871c-.317.403-.793.645-1.427.645s-1.11-.242-1.427-.645c-.555-.726-.634-1.774-.634-4.113 0-2.339 0-3.387.634-4.113.317-.403.793-.645 1.427-.645s1.11.242 1.427.645c.555.726.555 1.774.555 4.113 0 2.339 0 3.468-.555 4.113zm-.793-7.5c-.158-.242-.317-.323-.713-.323a.997.997 0 0 0-.714.323c-.317.484-.317 1.21-.317 3.387s.08 2.984.317 3.387c.159.242.317.323.714.323a.997.997 0 0 0 .713-.323c.317-.484.317-1.21.317-3.387s0-2.903-.317-3.387zM66.982 9.516l-1.11-4.032H65v4.032h-1.03V.081h1.902c1.268 0 1.982.645 1.982 2.66 0 1.291-.317 2.098-1.03 2.42l1.267 4.274h-1.11v.081zm-1.11-8.387H65v3.306h.872c.793 0 .951-.645.951-1.693 0-.968-.238-1.613-.951-1.613z"/>
        <path fill="#231F20" d="M71.5 9.597c-.634 0-1.11-.242-1.427-.645-.555-.726-.634-1.775-.634-4.113 0-2.339 0-3.387.634-4.113C70.39.323 70.866.08 71.5.08c.555 0 1.03.242 1.348.564.396.484.554 1.13.554 1.855h-1.03c0-.645-.159-1.452-.951-1.452a.997.997 0 0 0-.714.323c-.317.484-.317 1.21-.317 3.387s.08 2.984.317 3.387c.159.242.317.323.714.323.555 0 .951-.565.951-1.29V5.402h-.951v-.968h1.902v2.823c.159 1.532-.713 2.339-1.823 2.339zM75.305 9.516V.081h3.17v1.048h-2.219v3.145h1.903v1.049h-1.903v3.225h2.22v1.049h-3.171zM83.866 9.032c-.317.323-.793.565-1.506.565-.634 0-1.11-.162-1.427-.565-.396-.403-.476-.967-.476-1.935h1.03c0 .645.08.968.318 1.21a.997.997 0 0 0 .713.322c.317 0 .555-.08.714-.323.238-.241.238-.645.238-1.29 0-1.048-.159-1.37-.793-1.693l-1.11-.484c-.872-.404-1.11-.887-1.11-2.339 0-.806.238-1.452.634-1.935A1.896 1.896 0 0 1 82.44 0c.634 0 1.03.161 1.348.565.396.483.554 1.048.554 1.935h-1.03c0-.484-.08-.806-.238-1.129a.997.997 0 0 0-.713-.323c-.317 0-.476.081-.634.323-.238.242-.317.645-.317 1.129 0 .887.158 1.21.792 1.532l.951.403c.952.404 1.19 1.13 1.19 2.581 0 .887-.08 1.532-.476 2.016z"/>
        <path fill="#231F20" fill-rule="nonzero" d="M91.872 9.516l-.396-2.258h-1.903l-.396 2.177h-1.03L90.048.081H91l1.902 9.354h-1.03v.081zm-1.348-7.58l-.792 4.354h1.585l-.793-4.355zM97.58 9.516l-1.11-4.032h-.872v4.032h-1.03V.081h1.902c1.268 0 1.981.645 1.981 2.66 0 1.291-.317 2.098-1.03 2.42l1.268 4.274h-1.11v.081zM96.39 1.13h-.872v3.306h.872c.793 0 .951-.645.951-1.693 0-.968-.158-1.613-.95-1.613z"/>
        <path fill="#231F20" d="M103.841 9.516l-1.426-4.274-.714 1.613v2.58h-1.03V.081h1.03v4.758L103.683.08h1.03l-1.664 3.87 1.902 5.484h-1.11zM108.439 1.129v8.387h-1.03V1.13h-1.427V.081h3.805v1.048zM111.61 9.516V.081h1.03v9.354h-1.03zM118.03 9.032c-.317.323-.792.565-1.506.565-.634 0-1.11-.162-1.426-.565-.397-.403-.476-.967-.476-1.935h1.03c0 .645.08.968.318 1.21a.997.997 0 0 0 .713.322c.317 0 .555-.08.713-.323.238-.241.238-.645.238-1.29 0-1.048-.158-1.37-.793-1.693l-1.03-.484c-.872-.404-1.11-.887-1.11-2.339 0-.806.238-1.452.634-1.935A1.896 1.896 0 0 1 116.683 0c.634 0 1.03.161 1.347.565.397.483.555 1.048.555 1.935h-1.03c0-.484-.08-.806-.238-1.129a.997.997 0 0 0-.713-.323c-.317 0-.476.081-.634.323-.238.242-.318.564-.318 1.048 0 .887.159 1.21.793 1.533l.951.403c.952.403 1.19 1.129 1.19 2.58 0 .968-.16 1.613-.556 2.097zM123.817 9.516l-1.506-4.274-.713 1.613v2.58h-1.03V.081h1.03v4.758L123.579.08h1.03l-1.664 3.87 1.903 5.484h-1.03zM126.512 9.516V.081h3.17v1.048h-2.219v3.145h1.903v1.049h-1.903v3.225h2.22v1.049h-3.17zM56.28 23.629c-.396.403-.871.645-1.347.645-.555 0-1.03-.242-1.348-.645a2.626 2.626 0 0 1-.555-1.613v-7.258h1.031v7.339c0 .726.396 1.129.872 1.129s.951-.403.951-1.13v-7.338h1.03v7.258c-.079.645-.316 1.21-.634 1.613zM61.512 24.113l-2.14-6.371v6.37h-1.03v-9.354h.95l2.14 6.371v-6.37h1.031v9.354h-.95zM64.762 24.113v-9.355h1.03v9.355zM70.073 24.113h-1.03l-1.823-9.355h1.11l1.188 7.58 1.19-7.58h1.11zM73.482 24.113v-9.355h3.17v1.048h-2.14v3.146h1.903V20h-1.903v3.226h2.22v1.048h-3.25z"/>
        <path fill="#231F20" fill-rule="nonzero" d="M81.567 24.113l-1.11-4.032h-.872v4.032h-1.11v-9.355h1.903c1.268 0 1.982.645 1.982 2.661 0 1.29-.317 2.097-1.03 2.42l1.268 4.274h-1.03zm-1.189-8.307h-.872v3.307h.872c.793 0 .951-.645.951-1.694 0-.967-.158-1.613-.951-1.613z"/>
        <path fill="#231F20" d="M87.512 23.629c-.317.323-.792.565-1.506.565-.634 0-1.11-.162-1.427-.565-.396-.403-.475-.968-.475-2.016h1.03c0 .645.08.968.317 1.21a.997.997 0 0 0 .714.322c.317 0 .555-.08.713-.322.238-.242.238-.646.238-1.21 0-1.048-.159-1.371-.793-1.694l-.951-.403c-.872-.403-1.11-.887-1.11-2.339 0-.806.238-1.451.634-1.935a1.896 1.896 0 0 1 1.348-.565c.634 0 1.03.162 1.347.565.397.484.555 1.048.555 1.935h-1.03c0-.483-.08-.806-.238-1.129a.997.997 0 0 0-.713-.322c-.317 0-.476.08-.635.322a2.113 2.113 0 0 0-.317 1.13c0 .887.159 1.21.793 1.532l.951.403c.952.403 1.19 1.129 1.19 2.58-.16.888-.238 1.533-.635 1.936zM89.811 24.113v-9.355h1.03v9.355zM94.567 15.806v8.388h-1.03v-8.388H92.11v-1.048h3.805v1.048zM97.341 24.113v-9.355h3.171v1.048h-2.22v3.146h1.903V20h-1.902v3.226h2.22v1.048H97.34zM104.317 15.806v8.388h-1.03v-8.388h-1.427v-1.048h3.805v1.048z"/>
    </g>
</svg>
