<svg xmlns="http://www.w3.org/2000/svg" width="120" height="33" viewBox="0 0 120 33">
    <g fill="#CC071E" fill-rule="evenodd">
        <path fill-rule="nonzero" d="M43.69 22.483a5.873 5.873 0 0 1-5.605-3.457 5.905 5.905 0 0 1 1.11-6.505 5.862 5.862 0 0 1 6.432-1.392 5.892 5.892 0 0 1 3.685 5.468c.066 3.181-2.45 5.815-5.622 5.886m0-14.833c-4.718 0-8.539 4.002-8.539 8.947 0 4.944 3.823 8.946 8.54 8.946 4.715 0 8.538-4.002 8.538-8.946 0-4.945-3.828-8.947-8.539-8.947M75.642 15.42c.586-2.592 2.804-4.752 5.46-4.752 2.655 0 4.873 2.16 5.46 4.753h-10.92zm6.971 10.088l.014-3.032-1.525-.028c-2.656 0-4.79-2.02-5.375-4.619h13.9c.036-.424.04-.85.013-1.275 0-4.937-3.822-8.946-8.538-8.946-4.717 0-8.54 4.002-8.54 8.946 0 4.945 3.823 8.947 8.54 8.947h1.511v.007zM111.351 22.448a5.873 5.873 0 0 1-5.604-3.458 5.905 5.905 0 0 1 1.11-6.504 5.862 5.862 0 0 1 6.431-1.392 5.892 5.892 0 0 1 3.685 5.467c.066 3.182-2.45 5.815-5.622 5.887m0-14.833c-4.717 0-8.539 4.002-8.539 8.946s3.823 8.947 8.54 8.947c4.716 0 8.538-4.003 8.538-8.947 0-4.944-3.828-8.946-8.539-8.946"/>
        <path d="M63.967 7.615a7.626 7.626 0 0 0-3.171.694 8.2 8.2 0 0 0-2.649 1.877h-.092V7.919h-3.467v17.242h3.468V12.834c.465-.464.958-.899 1.476-1.303a6.416 6.416 0 0 1 1.392-.808 6.66 6.66 0 0 1 1.003-.305c.33-.049.662-.075.996-.078a3.627 3.627 0 0 1 2.825 1.155 4.353 4.353 0 0 1 .996 2.996v10.676h3.468V14.564c0-2.345-.254-4.109-1.554-5.263a6.841 6.841 0 0 0-4.69-1.686M26.64 7.615a7.604 7.604 0 0 0-3.17.694 8.201 8.201 0 0 0-2.65 1.877h-.084V0h-3.468v25.16h3.468V12.835c.466-.464.959-.899 1.477-1.303a6.417 6.417 0 0 1 1.39-.808 6.66 6.66 0 0 1 1.004-.305c.33-.049.662-.075.996-.078a3.637 3.637 0 0 1 2.825 1.155 4.355 4.355 0 0 1 1.003 2.996v10.676h3.466V14.564c0-2.345-.254-4.109-1.553-5.263a6.89 6.89 0 0 0-4.704-1.686M6.448 7.615L0 7.622v3.074c.134-.014 6.314-.021 6.448-.021 3.142.137 5.62 2.732 5.62 5.886 0 3.155-2.478 5.75-5.62 5.887L0 22.426v10.42h3.468v-7.345c1.49 0 2.917.007 2.98.007 4.712 0 8.54-4.002 8.54-8.946 0-4.945-3.829-8.947-8.54-8.947M104.55 8.373a7.198 7.198 0 0 0-3.313-.751 7.605 7.605 0 0 0-3.17.694 8.19 8.19 0 0 0-2.65 1.884h-.084V7.934h-3.468v17.234h3.468V12.84c.466-.463.959-.899 1.477-1.303a6.417 6.417 0 0 1 1.39-.808c.325-.123.658-.225.996-.304.33-.046.663-.072.996-.079a3.868 3.868 0 0 1 2.26.652 10.73 10.73 0 0 1 2.098-2.628"/>
    </g>
</svg>
