<svg xmlns="http://www.w3.org/2000/svg" xmlns:xlink="http://www.w3.org/1999/xlink" width="20" height="20" viewBox="0 0 20 20">
    <defs>
        <radialGradient id="a" cx="26.563%" cy="107.702%" r="99.107%" fx="26.563%" fy="107.702%">
            <stop offset="0%" stop-color="#FD5"/>
            <stop offset="10%" stop-color="#FD5"/>
            <stop offset="50%" stop-color="#FF543E"/>
            <stop offset="100%" stop-color="#C837AB"/>
        </radialGradient>
        <radialGradient id="c" cx="-16.751%" cy="7.204%" r="44.301%" fx="-16.751%" fy="7.204%">
            <stop offset="0%" stop-color="#3771C8"/>
            <stop offset="12.8%" stop-color="#3771C8"/>
            <stop offset="100%" stop-color="#60F" stop-opacity="0"/>
        </radialGradient>
        <path id="b" d="M10 0c5.523 0 10 4.477 10 10s-4.477 10-10 10S0 15.523 0 10 4.477 0 10 0zm.437 4.667h-.875a30.946 30.946 0 0 0-1.76.032c-.568.026-.956.116-1.295.248-.35.136-.648.318-.945.615a2.618 2.618 0 0 0-.615.944c-.133.34-.223.727-.248 1.295-.023.505-.03.705-.032 1.76v.877a31.04 31.04 0 0 0 .032 1.76c.026.568.116.956.248 1.295.136.35.318.648.615.945.296.296.594.48.944.615.34.132.727.222 1.295.248.506.023.705.03 1.76.032h.877a30.927 30.927 0 0 0 1.76-.032c.568-.026.956-.116 1.296-.248a2.61 2.61 0 0 0 .944-.615c.296-.297.479-.594.615-.945.131-.34.221-.727.248-1.294.023-.506.03-.705.032-1.76v-.877a31.296 31.296 0 0 0-.032-1.761c-.027-.568-.117-.955-.248-1.295a2.618 2.618 0 0 0-.615-.944 2.607 2.607 0 0 0-.945-.615c-.34-.132-.727-.222-1.295-.248-.506-.023-.705-.03-1.76-.032zm-.915.96h.479c1.424 0 1.592.006 2.155.031.52.024.802.111.99.184.249.097.426.212.613.399.186.187.302.364.399.613.073.188.16.47.184.99.02.463.028.66.03 1.51v1.29a27.22 27.22 0 0 1-.03 1.51c-.024.52-.111.801-.184.99a1.649 1.649 0 0 1-.4.612 1.65 1.65 0 0 1-.612.399c-.188.073-.47.16-.99.184-.463.02-.66.028-1.51.03H9.355c-.85-.002-1.047-.01-1.51-.03-.52-.024-.802-.111-.99-.184a1.652 1.652 0 0 1-.613-.4 1.653 1.653 0 0 1-.4-.612c-.072-.188-.16-.47-.183-.99-.021-.463-.028-.66-.03-1.51V9.352c.002-.85.009-1.046.03-1.509.024-.52.11-.802.184-.99.096-.25.212-.427.399-.614.186-.186.364-.302.613-.399.188-.073.47-.16.99-.184.492-.022.683-.028 1.677-.03zM10 7.26a2.739 2.739 0 1 0 0 5.478 2.739 2.739 0 0 0 0-5.478zm0 .961a1.778 1.778 0 1 1 0 3.556 1.778 1.778 0 0 1 0-3.556zm2.847-1.709a.64.64 0 1 0 0 1.28.64.64 0 0 0 0-1.28z"/>
    </defs>
    <g fill="none" fill-rule="evenodd">
        <use fill="url(#a)" xlink:href="#b"/>
        <use fill="url(#c)" xlink:href="#b"/>
    </g>
</svg>
