<svg xmlns="http://www.w3.org/2000/svg" width="20" height="20" viewBox="0 0 20 20">
    <path fill="#0A7BBA" fill-rule="evenodd" d="M10 0c5.523 0 10 4.477 10 10s-4.477 10-10 10S0 15.523 0 10 4.477 0 10 0zM7.604 7.737H5.46v6.298h2.143V7.737zm5.262-.148c-1.14 0-1.648.613-1.933 1.041v-.893H8.79c.027.557.003 5.663 0 6.244v.054h2.144v-3.517c0-.19.014-.376.071-.51.156-.377.508-.767 1.1-.767.776 0 1.086.578 1.086 1.425v3.37h2.143v-3.613c0-1.933-1.057-2.834-2.467-2.834zM10.933 8.63v.02h-.014l.014-.02zM6.547 4.702c-.734 0-1.214.47-1.214 1.088 0 .604.466 1.088 1.185 1.088h.014c.748 0 1.213-.484 1.213-1.088-.014-.618-.465-1.088-1.198-1.088z"/>
</svg>
